<?xml version="1.0" encoding="UTF-8"?>
<svg id="Vrstva_2" data-name="Vrstva 2" xmlns="http://www.w3.org/2000/svg" viewBox="0 0 74.7 949.26">
  <defs>
    <style>
      .cls-1 {
        fill: #09b5e2;
      }
    </style>
  </defs>
  <g id="Vrstva_8" data-name="Vrstva 8">
    <g>
      <polygon class="cls-1" points="12.81 801.47 12.81 809.29 74.7 809.29 74.7 863.36 0 863.36 0 850.55 61.89 850.55 61.89 842.73 0 842.73 0 829.92 61.89 829.92 61.89 822.1 0 822.1 0 788.67 74.7 788.67 74.7 801.47 12.81 801.47"/>
      <polygon class="cls-1" points="12.81 762.84 20.63 762.84 20.63 700.95 74.7 700.95 74.7 775.64 61.89 775.64 61.89 713.75 54.07 713.75 54.07 775.64 41.26 775.64 41.26 713.75 33.44 713.75 33.44 775.64 0 775.64 0 700.95 12.81 700.95 12.81 762.84"/>
      <polygon class="cls-1" points="12.81 936.45 20.63 936.45 20.63 874.56 74.7 874.56 74.7 949.26 61.89 949.26 61.89 887.37 54.07 887.37 54.07 949.26 41.26 949.26 41.26 887.37 33.44 887.37 33.44 949.26 0 949.26 0 874.56 12.81 874.56 12.81 936.45"/>
      <polygon class="cls-1" points="12.81 626.04 12.81 633.86 74.7 633.86 74.7 687.93 0 687.93 0 675.12 61.89 675.12 61.89 667.3 0 667.3 0 654.49 61.89 654.49 61.89 646.67 0 646.67 0 613.23 74.7 613.23 74.7 626.04 12.81 626.04"/>
      <polygon class="cls-1" points="12.81 587.4 20.63 587.4 20.63 525.51 74.7 525.51 74.7 600.21 61.89 600.21 61.89 538.32 54.07 538.32 54.07 600.21 41.26 600.21 41.26 538.32 33.44 538.32 33.44 600.21 0 600.21 0 525.51 12.81 525.51 12.81 587.4"/>
      <polygon class="cls-1" points="12.81 450.6 12.81 458.42 74.7 458.42 74.7 512.49 0 512.49 0 499.68 61.89 499.68 61.89 491.86 0 491.86 0 479.05 61.89 479.05 61.89 471.23 0 471.23 0 437.79 74.7 437.79 74.7 450.6 12.81 450.6"/>
      <polygon class="cls-1" points="12.81 411.97 20.63 411.97 20.63 350.07 74.7 350.07 74.7 424.77 61.89 424.77 61.89 362.88 54.07 362.88 54.07 424.77 41.26 424.77 41.26 362.88 33.44 362.88 33.44 424.77 0 424.77 0 350.07 12.81 350.07 12.81 411.97"/>
      <polygon class="cls-1" points="12.81 275.16 12.81 282.99 74.7 282.99 74.7 337.05 0 337.05 0 324.24 61.89 324.24 61.89 316.42 0 316.42 0 303.61 61.89 303.61 61.89 295.8 0 295.8 0 262.36 74.7 262.36 74.7 275.16 12.81 275.16"/>
      <polygon class="cls-1" points="12.81 99.73 12.81 107.55 74.7 107.55 74.7 161.62 0 161.62 0 148.81 61.89 148.81 61.89 140.99 0 140.99 0 128.18 61.89 128.18 61.89 120.36 0 120.36 0 86.92 74.7 86.92 74.7 99.73 12.81 99.73"/>
      <polygon class="cls-1" points="12.81 236.53 20.63 236.53 20.63 174.64 74.7 174.64 74.7 249.34 61.89 249.34 61.89 187.44 54.07 187.44 54.07 249.34 41.26 249.34 41.26 187.44 33.44 187.44 33.44 249.34 0 249.34 0 174.64 12.81 174.64 12.81 236.53"/>
      <polygon class="cls-1" points="12.81 61.89 20.63 61.89 20.63 0 74.7 0 74.7 74.7 61.89 74.7 61.89 12.81 54.07 12.81 54.07 74.7 41.26 74.7 41.26 12.81 33.44 12.81 33.44 74.7 0 74.7 0 0 12.81 0 12.81 61.89"/>
    </g>
  </g>
</svg>