<?xml version="1.0" encoding="UTF-8"?><svg id="LONG_MONO_BLACK" xmlns="http://www.w3.org/2000/svg" viewBox="0 0 566.93 141.73"><defs><style>.cls-1{fill:#27251f;}</style></defs><g id="LOGO"><g id="TEXT"><path id="c" class="cls-1" d="M202.02,73.22v-6.99c-1.27-.22-2.55-.34-3.84-.34-3.52,0-5.98,1.02-7.37,3.07-1.39,2.05-2.09,5.29-2.09,9.72,0,4.43,.73,7.71,2.17,9.84,1.45,2.13,3.99,3.2,7.63,3.2,3.77-.02,7.53-.53,11.17-1.53l1.28,8.18c-4.16,1.16-8.47,1.73-12.79,1.7-12.62,0-18.93-7.1-18.93-21.31,0-7.33,1.43-12.69,4.3-16.07,2.87-3.38,7.66-5.07,14.36-5.07,4.2-.01,8.39,.53,12.45,1.62v13.98h-8.35Z"/><path id="o" class="cls-1" d="M223.78,62.95c2.9-3.44,7.36-5.16,13.38-5.16,6.02,0,10.48,1.72,13.38,5.16,2.9,3.44,4.35,8.74,4.35,15.9,0,7.16-1.45,12.49-4.35,15.98-2.9,3.5-7.36,5.24-13.38,5.24-6.03,0-10.49-1.75-13.38-5.24-2.9-3.5-4.35-8.82-4.35-15.98,0-7.16,1.45-12.46,4.35-15.9Zm6.86,6.09c-1.17,1.99-1.75,5.26-1.75,9.8,0,4.55,.6,7.84,1.79,9.89,1.19,2.05,3.35,3.07,6.48,3.07s5.29-1.02,6.48-3.07c1.19-2.05,1.79-5.34,1.79-9.89s-.58-7.81-1.75-9.8c-1.17-1.99-3.34-2.98-6.52-2.98-3.18,0-5.36,.99-6.52,2.98Z"/><path id="a" class="cls-1" d="M276.53,99.91c-9.09,0-13.64-4.32-13.64-12.96,0-4.6,1.46-7.83,4.39-9.68,2.92-1.85,6.97-2.77,12.15-2.77,2.44,0,5.23,.14,8.35,.43,0-3.41-.48-5.74-1.45-6.99-.96-1.25-2.64-1.87-5.03-1.87-2.8,.04-5.6,.33-8.35,.85-2.48,.4-4.93,.97-7.33,1.71l-1.62-8.1c5.66-1.77,11.55-2.69,17.48-2.73,5.68,0,9.62,1.25,11.8,3.75,2.19,2.5,3.28,6.74,3.29,12.7v17.31l.94,7.5-8.78,.85-.85-3.92c-4.77,2.62-8.55,3.92-11.34,3.92Zm1.36-8.27c1.81-.04,3.61-.42,5.29-1.11,1.65-.58,3.2-1.42,4.6-2.47v-5.97c-3.41-.28-6.19-.43-8.35-.43-4.72,0-7.08,1.76-7.08,5.29,0,3.13,1.85,4.69,5.54,4.69h0Z"/><path id="l" class="cls-1" d="M305.18,99.91v-8.05h13.04V49.66l-11.29,.09-.09-7.96,20.4-.09v50.15h12.34v8.05h-34.4Z"/><path id="s" class="cls-1" d="M346.07,97.09l1.88-7.76c5.4,1.7,9.69,2.56,12.87,2.56,3.18,0,5.34-.31,6.48-.94,1.14-.58,1.82-1.79,1.7-3.07,.11-1.25-.48-2.47-1.53-3.15-1.83-.91-3.78-1.57-5.8-1.96-5.63-1.37-9.55-2.89-11.77-4.56-2.22-1.68-3.32-4.42-3.32-8.23,0-8.13,5.23-12.19,15.69-12.19,5.27,.11,10.51,.85,15.6,2.22l-1.62,8.1c-5.63-1.59-9.97-2.38-13.04-2.39-3.07,0-5.13,.27-6.18,.81-1.04,.52-1.66,1.61-1.57,2.77-.07,1.18,.54,2.29,1.57,2.85,2.63,1.14,5.35,2.04,8.14,2.68,4.38,1.19,7.59,2.57,9.63,4.13,2.05,1.56,3.07,4.22,3.07,7.97,0,8.58-5.29,12.87-15.86,12.87-5.42-.08-10.8-1-15.94-2.73Z"/><path id="o-2" class="cls-1" d="M390.86,62.95c2.9-3.44,7.36-5.16,13.38-5.16,6.02,0,10.48,1.72,13.38,5.16,2.9,3.44,4.35,8.74,4.35,15.9,0,7.16-1.45,12.49-4.35,15.98-2.9,3.5-7.36,5.24-13.38,5.24-6.03,0-10.49-1.75-13.38-5.24-2.9-3.5-4.35-8.82-4.35-15.98s1.45-12.46,4.35-15.9Zm6.86,6.09c-1.17,1.99-1.75,5.26-1.75,9.8s.6,7.84,1.79,9.89c1.19,2.05,3.35,3.07,6.48,3.07s5.29-1.02,6.48-3.07c1.19-2.05,1.79-5.34,1.79-9.89s-.58-7.81-1.75-9.8c-1.17-1.99-3.34-2.98-6.52-2.98-3.18,0-5.36,.99-6.52,2.98Z"/><path id="f" class="cls-1" d="M448.65,92.09h15.3v7.99h-33.72v-7.99h9.47v-26.3h-9.13v-7.99h9.14c.1-5.72,1.13-9.81,3.07-12.25,2.06-2.58,5.64-3.87,10.74-3.87,3.81,.05,7.6,.55,11.29,1.48l-1.39,7.91c-2.96-.73-5.99-1.14-9.04-1.22-2.43,0-3.99,.61-4.69,1.83-.62,1.09-.97,3.14-1.02,6.12h15.1v7.99h-15.12v26.3Z"/><path id="t" class="cls-1" d="M471.34,65.81v-7.96h7.01v-9.86l8.91-.87v10.73h16.18v7.96h-16.18v17.31c0,3.17,.32,5.41,.95,6.7,.63,1.3,1.93,1.95,3.89,1.95,4.03-.08,8.04-.63,11.94-1.64l1.47,7.7c-4.37,1.23-8.88,1.9-13.42,1.99-5.54,0-9.22-1.24-11.03-3.72-1.82-2.48-2.73-6.81-2.73-12.98v-17.31h-7.01Z"/></g><path id="ICON" class="cls-1" d="M60.75,31.65V110.09h78.45V31.65H60.75Zm68.41,20.05h-48.38v6.11h48.38v42.27h-58.39v-10.01h48.38v-6.12h-48.38v-10.01h48.38v-6.12h-48.38v-26.14h58.39v10.02Z"/></g></svg>