<?xml version="1.0" encoding="UTF-8"?><svg xmlns="http://www.w3.org/2000/svg" viewBox="0 0 311.81 311.81"><defs><style>.cls-1{fill:#fff;}.cls-2{fill:#27251f;}</style></defs><g id="BG"><rect class="cls-2" width="311.81" height="311.81"/></g><g id="SQUARE_MONO_WHITE"><g id="LOGO"><g id="TEXT"><path id="c" class="cls-1" d="M85.55,225.07v-3.51c-.64-.11-1.28-.17-1.92-.17-1.77,0-3,.51-3.7,1.54-.7,1.03-1.05,2.65-1.05,4.88,0,2.22,.36,3.87,1.09,4.94,.73,1.07,2,1.6,3.83,1.6,1.89,0,3.78-.27,5.6-.77l.64,4.11c-2.09,.58-4.25,.87-6.41,.85-6.33,0-9.49-3.56-9.49-10.69,0-3.68,.72-6.36,2.16-8.06,1.44-1.7,3.84-2.54,7.21-2.54,2.11,0,4.21,.27,6.24,.81v7.01h-4.19Z"/><path id="o" class="cls-1" d="M96.46,219.91c1.45-1.72,3.69-2.59,6.71-2.59,3.02,0,5.26,.86,6.71,2.59,1.45,1.72,2.18,4.38,2.18,7.98,0,3.59-.73,6.26-2.18,8.02-1.45,1.75-3.69,2.63-6.71,2.63-3.02,0-5.26-.88-6.71-2.63-1.45-1.75-2.18-4.43-2.18-8.02,0-3.59,.73-6.25,2.18-7.98Zm3.44,3.06c-.58,1-.88,2.64-.88,4.92,0,2.28,.3,3.94,.9,4.96,.6,1.03,1.68,1.54,3.25,1.54s2.65-.51,3.25-1.54c.6-1.03,.9-2.68,.9-4.96s-.29-3.92-.88-4.92c-.58-1-1.68-1.5-3.27-1.5-1.6,0-2.69,.5-3.27,1.5Z"/><path id="a" class="cls-1" d="M122.92,238.45c-4.56,0-6.84-2.17-6.84-6.5,0-2.31,.73-3.93,2.2-4.85,1.47-.93,3.5-1.39,6.09-1.39,1.23,0,2.62,.07,4.19,.21,0-1.71-.24-2.88-.73-3.51-.48-.63-1.32-.94-2.52-.94-1.41,.02-2.81,.16-4.19,.43-1.24,.2-2.47,.49-3.68,.86l-.81-4.06c2.84-.89,5.79-1.35,8.77-1.37,2.85,0,4.82,.63,5.92,1.88,1.1,1.25,1.65,3.38,1.65,6.37v8.68l.47,3.76-4.4,.43-.43-1.97c-2.39,1.31-4.29,1.97-5.69,1.97Zm.68-4.15c.91-.02,1.81-.21,2.65-.56,.83-.29,1.61-.71,2.31-1.24v-2.99c-1.71-.14-3.11-.21-4.19-.21-2.37,0-3.55,.88-3.55,2.65,0,1.57,.93,2.35,2.78,2.35h0Z"/><path id="l" class="cls-1" d="M137.3,238.45v-4.04h6.54v-21.16l-5.66,.04-.04-3.99,10.23-.04v25.16h6.19v4.04h-17.26Z"/><path id="s" class="cls-1" d="M157.81,237.04l.94-3.89c2.71,.85,4.86,1.28,6.46,1.28,1.6,0,2.68-.16,3.25-.47,.57-.29,.91-.9,.85-1.54,.06-.63-.24-1.24-.77-1.58-.92-.46-1.9-.79-2.91-.98-2.82-.69-4.79-1.45-5.9-2.29-1.11-.84-1.67-2.22-1.67-4.13,0-4.08,2.62-6.12,7.87-6.11,2.64,.05,5.27,.43,7.83,1.11l-.81,4.06c-2.82-.8-5-1.2-6.54-1.2-1.54,0-2.57,.14-3.1,.41-.52,.26-.83,.81-.79,1.39-.04,.59,.27,1.15,.79,1.43,1.32,.57,2.68,1.02,4.08,1.35,2.2,.6,3.81,1.29,4.83,2.07,1.03,.78,1.54,2.12,1.54,4,0,4.31-2.65,6.46-7.95,6.46-2.72-.04-5.42-.5-8-1.37Z"/><path id="o-2" class="cls-1" d="M180.27,219.91c1.45-1.72,3.69-2.59,6.71-2.59,3.02,0,5.26,.86,6.71,2.59,1.45,1.72,2.18,4.38,2.18,7.98,0,3.59-.73,6.26-2.18,8.02-1.45,1.75-3.69,2.63-6.71,2.63-3.02,0-5.26-.88-6.71-2.63-1.45-1.75-2.18-4.43-2.18-8.02s.73-6.25,2.18-7.98Zm3.44,3.06c-.58,1-.88,2.64-.88,4.92s.3,3.94,.9,4.96c.6,1.03,1.68,1.54,3.25,1.54s2.65-.51,3.25-1.54c.6-1.03,.9-2.68,.9-4.96s-.29-3.92-.88-4.92c-.58-1-1.68-1.5-3.27-1.5-1.6,0-2.69,.5-3.27,1.5Z"/><path id="f" class="cls-1" d="M209.27,234.53h7.68v4.01h-16.92v-4.01h4.75v-13.19h-4.58v-4.01h4.58c.05-2.87,.57-4.92,1.54-6.15,1.03-1.29,2.83-1.94,5.39-1.94,1.91,.03,3.81,.28,5.66,.74l-.7,3.97c-1.48-.37-3-.57-4.53-.61-1.22,0-2,.31-2.35,.92-.31,.55-.49,1.58-.51,3.07h7.57v4.01h-7.58v13.19Z"/><path id="t" class="cls-1" d="M220.65,221.35v-3.99h3.52v-4.95l4.47-.43v5.38h8.12v3.99h-8.12v8.68c0,1.59,.16,2.71,.48,3.36,.32,.65,.97,.98,1.95,.98,2.02-.04,4.03-.32,5.99-.82l.74,3.87c-2.19,.62-4.45,.95-6.73,1-2.78,0-4.62-.62-5.53-1.87-.91-1.24-1.37-3.41-1.37-6.51v-8.68h-3.52Z"/></g><path id="ICON" class="cls-1" d="M101.73,73.09v108.39h108.4V73.09H101.73Zm94.53,27.7h-66.85v8.44h66.85v58.41H115.57v-13.83h66.85v-8.46H115.57v-13.83h66.85v-8.46H115.57v-36.12h80.68v13.85Z"/></g></g></svg>