<?xml version="1.0" encoding="UTF-8"?><svg id="COALSOFT" xmlns="http://www.w3.org/2000/svg" viewBox="0 0 200 1000"><defs><style>.cls-1{fill:#00b5e2;}</style></defs><g id="PRUH"><polygon class="cls-1" points="75.46 826.84 75.46 834.66 137.35 834.66 137.35 888.73 62.65 888.73 62.65 875.92 124.54 875.92 124.54 868.1 62.65 868.1 62.65 855.29 124.54 855.29 124.54 847.47 62.65 847.47 62.65 814.04 137.35 814.04 137.35 826.84 75.46 826.84"/><polygon class="cls-1" points="75.46 788.21 83.28 788.21 83.28 726.32 137.35 726.32 137.35 801.01 124.54 801.01 124.54 739.12 116.72 739.12 116.72 801.01 103.91 801.01 103.91 739.12 96.09 739.12 96.09 801.01 62.65 801.01 62.65 726.32 75.46 726.32 75.46 788.21"/><polygon class="cls-1" points="75.46 961.82 83.28 961.82 83.28 899.93 137.35 899.93 137.35 974.63 124.54 974.63 124.54 912.74 116.72 912.74 116.72 974.63 103.91 974.63 103.91 912.74 96.09 912.74 96.09 974.63 62.65 974.63 62.65 899.93 75.46 899.93 75.46 961.82"/><polygon class="cls-1" points="75.46 651.41 75.46 659.23 137.35 659.23 137.35 713.3 62.65 713.3 62.65 700.49 124.54 700.49 124.54 692.67 62.65 692.67 62.65 679.86 124.54 679.86 124.54 672.04 62.65 672.04 62.65 638.6 137.35 638.6 137.35 651.41 75.46 651.41"/><polygon class="cls-1" points="75.46 612.77 83.28 612.77 83.28 550.88 137.35 550.88 137.35 625.58 124.54 625.58 124.54 563.69 116.72 563.69 116.72 625.58 103.91 625.58 103.91 563.69 96.09 563.69 96.09 625.58 62.65 625.58 62.65 550.88 75.46 550.88 75.46 612.77"/><polygon class="cls-1" points="75.46 475.97 75.46 483.79 137.35 483.79 137.35 537.86 62.65 537.86 62.65 525.05 124.54 525.05 124.54 517.23 62.65 517.23 62.65 504.42 124.54 504.42 124.54 496.6 62.65 496.6 62.65 463.16 137.35 463.16 137.35 475.97 75.46 475.97"/><polygon class="cls-1" points="75.46 437.33 83.28 437.33 83.28 375.44 137.35 375.44 137.35 450.14 124.54 450.14 124.54 388.25 116.72 388.25 116.72 450.14 103.91 450.14 103.91 388.25 96.09 388.25 96.09 450.14 62.65 450.14 62.65 375.44 75.46 375.44 75.46 437.33"/><polygon class="cls-1" points="75.46 300.53 75.46 308.35 137.35 308.35 137.35 362.42 62.65 362.42 62.65 349.61 124.54 349.61 124.54 341.79 62.65 341.79 62.65 328.98 124.54 328.98 124.54 321.16 62.65 321.16 62.65 287.73 137.35 287.73 137.35 300.53 75.46 300.53"/><polygon class="cls-1" points="75.46 125.1 75.46 132.92 137.35 132.92 137.35 186.99 62.65 186.99 62.65 174.18 124.54 174.18 124.54 166.36 62.65 166.36 62.65 153.55 124.54 153.55 124.54 145.73 62.65 145.73 62.65 112.29 137.35 112.29 137.35 125.1 75.46 125.1"/><polygon class="cls-1" points="75.46 261.9 83.28 261.9 83.28 200.01 137.35 200.01 137.35 274.7 124.54 274.7 124.54 212.81 116.72 212.81 116.72 274.7 103.91 274.7 103.91 212.81 96.09 212.81 96.09 274.7 62.65 274.7 62.65 200.01 75.46 200.01 75.46 261.9"/><polygon class="cls-1" points="75.46 87.26 83.28 87.26 83.28 25.37 137.35 25.37 137.35 100.07 124.54 100.07 124.54 38.18 116.72 38.18 116.72 100.07 103.91 100.07 103.91 38.18 96.09 38.18 96.09 100.07 62.65 100.07 62.65 25.37 75.46 25.37 75.46 87.26"/></g></svg>